G04 PROTEUS GERBER X2 FILE*
%TF.GenerationSoftware,Labcenter,Proteus,8.9-SP0-Build27865*%
%TF.CreationDate,2021-07-06T13:58:13+00:00*%
%TF.FileFunction,Copper,L2,Bot*%
%TF.FilePolarity,Positive*%
%TF.Part,Single*%
%TF.SameCoordinates,{18627ce9-af7a-45ab-814d-a4259279258d}*%
%FSLAX45Y45*%
%MOMM*%
G01*
%TA.AperFunction,Conductor*%
%ADD10C,0.254000*%
%ADD11C,0.635000*%
%TA.AperFunction,ViaPad*%
%ADD12C,0.762000*%
%AMDIL003*
4,1,8,
-1.270000,0.457200,-0.965200,0.762000,0.965200,0.762000,1.270000,0.457200,1.270000,-0.457200,
0.965200,-0.762000,-0.965200,-0.762000,-1.270000,-0.457200,-1.270000,0.457200,
0*%
%TA.AperFunction,ComponentPad*%
%ADD13DIL003*%
%TA.AperFunction,ComponentPad*%
%ADD70C,1.778000*%
%TA.AperFunction,WasherPad*%
%ADD71C,1.397000*%
%TA.AperFunction,Profile*%
%ADD20C,0.203200*%
%TD.AperFunction*%
D10*
X-7874000Y-127000D02*
X-8001000Y+0D01*
X-8001000Y+1016000D01*
X-9271000Y+508000D02*
X-9271000Y+381000D01*
X-9525000Y+127000D01*
X-9525000Y-508000D01*
X-8636000Y+127000D02*
X-8763000Y+0D01*
X-9144000Y+0D01*
X-9271000Y-127000D01*
X-9271000Y+254000D02*
X-9144000Y+381000D01*
X-9144000Y+1905000D01*
X-8890000Y+2159000D01*
X-8636000Y+2032000D02*
X-8636000Y+1397000D01*
X-8255000Y+1016000D01*
X-8255000Y+381000D01*
X-8255000Y+254000D02*
X-8128000Y+127000D01*
X-8128000Y-508000D01*
X-8001000Y+1651000D02*
X-7874000Y+1778000D01*
X-7874000Y+3048000D01*
X-8890000Y+1905000D02*
X-9017000Y+1778000D01*
X-9017000Y+889000D01*
X-8636000Y+508000D01*
X-8636000Y+381000D01*
D11*
X-8636000Y+2794000D02*
X-8636000Y+2667000D01*
X-8890000Y+2413000D01*
D10*
X-8509000Y+2794000D02*
X-8509000Y+1397000D01*
X-8001000Y+2667000D02*
X-8001000Y+2286000D01*
X-7620000Y-127000D02*
X-7366000Y-127000D01*
X-7747000Y+1143000D02*
X-8128000Y+1524000D01*
X-8128000Y+1778000D01*
X-8001000Y+1905000D01*
X-8636000Y-127000D02*
X-9017000Y-127000D01*
X-9144000Y-254000D01*
X-9271000Y-254000D01*
X-9398000Y-127000D01*
X-9398000Y+0D01*
X-9271000Y+127000D01*
X-9093200Y+304800D01*
X-9093200Y+1828800D01*
X-8890000Y+2032000D01*
X-9271000Y+508000D02*
X-9353550Y+590550D01*
X-9353550Y+2075835D01*
X-9143385Y+2286000D01*
X-8680450Y+2286000D01*
X-8636000Y+2241550D01*
X-8636000Y+2159000D01*
X-7747000Y+1397000D02*
X-7391400Y+1397000D01*
X-7239000Y+1244600D01*
X-7239000Y-381000D01*
X-7366000Y-508000D01*
X-9271000Y+1905000D02*
X-9271000Y+2032000D01*
X-9067800Y+2235200D01*
X-8854639Y+2235200D01*
X-8763000Y+2143561D01*
X-8763000Y+1778000D01*
X-8636000Y+2032000D02*
X-8597900Y+2032000D01*
X-8559800Y+2070100D01*
X-8559800Y+2247527D01*
X-8649073Y+2336800D01*
X-8978900Y+2336800D01*
X-9144000Y+2501900D01*
X-9144000Y+2667000D01*
X-8255000Y+254000D02*
X-8318500Y+254000D01*
X-8382000Y+317500D01*
X-8382000Y+762000D01*
X-8890000Y+1270000D01*
X-8890000Y+1778000D01*
X-8255000Y+254000D02*
X-8178800Y+254000D01*
X-8128000Y+304800D01*
X-8128000Y+508000D01*
X-8191500Y+571500D01*
X-8191500Y+1270000D01*
X-8382000Y+1460500D01*
X-8382000Y+2921000D01*
X-8255000Y+3048000D01*
X-8509000Y+2794000D02*
X-8432800Y+2870200D01*
X-8432800Y+3073027D01*
X-8381627Y+3124200D01*
X-8187515Y+3124200D01*
X-8128000Y+3064685D01*
X-8128000Y+2967815D01*
X-8174815Y+2921000D01*
X-8255000Y+2921000D01*
X-8509000Y+2794000D02*
X-8604250Y+2889250D01*
X-8747125Y+2889250D01*
X-8890000Y+2746375D01*
X-8890000Y+2540000D01*
X-7747000Y+2540000D02*
X-7493000Y+2540000D01*
X-7239000Y+2286000D01*
X-7239000Y+1524000D01*
X-8890000Y-254000D02*
X-8575239Y-254000D01*
X-8509000Y-187761D01*
X-8509000Y+127000D01*
X-8636000Y+254000D01*
X-8890000Y+254000D01*
X-9017000Y+381000D01*
X-9017000Y+762000D01*
X-7747000Y+1905000D02*
X-7747000Y+2197100D01*
X-7658100Y+2286000D01*
X-7493000Y+2286000D01*
X-7747000Y+1143000D02*
X-7747000Y+850900D01*
X-7658100Y+762000D01*
X-7493000Y+762000D01*
X-9525000Y+2032000D02*
X-9690100Y+2032000D01*
X-9779000Y+2120900D01*
X-9779000Y+2794000D01*
X-9525000Y+3048000D01*
X-8509000Y+3048000D01*
X-8509000Y+3130550D01*
X-8464550Y+3175000D01*
X-7887634Y+3175000D01*
X-7747000Y+3034366D01*
X-7747000Y+2667000D01*
X-9271000Y+254000D02*
X-9448753Y+76247D01*
X-9448753Y-171497D01*
X-9239250Y-381000D01*
X-8890000Y-381000D01*
X-8763000Y-508000D01*
D12*
X-8001000Y+1016000D03*
X-9271000Y-127000D03*
X-8636000Y+127000D03*
X-8890000Y+2159000D03*
X-7874000Y+3048000D03*
X-9017000Y+889000D03*
X-8890000Y+2413000D03*
X-8509000Y+1397000D03*
X-8001000Y+2286000D03*
X-7620000Y-127000D03*
X-8001000Y+1905000D03*
X-8890000Y+2032000D03*
X-9271000Y+127000D03*
X-8001000Y+2667000D03*
X-8890000Y+1905000D03*
X-8636000Y+2794000D03*
X-8001000Y+1651000D03*
X-9271000Y+508000D03*
X-8636000Y+2159000D03*
X-7747000Y+1397000D03*
X-9271000Y+1905000D03*
X-8763000Y+1778000D03*
X-8636000Y+2032000D03*
X-9144000Y+2667000D03*
X-8890000Y+1778000D03*
X-8255000Y+3048000D03*
X-8255000Y+2921000D03*
X-8890000Y+2540000D03*
X-7747000Y+2540000D03*
X-7239000Y+1524000D03*
X-8890000Y-254000D03*
X-9017000Y+762000D03*
X-7747000Y+1905000D03*
X-7747000Y+1143000D03*
X-8509000Y+3048000D03*
X-7747000Y+2667000D03*
X-9271000Y+254000D03*
D13*
X-7493000Y+2286000D03*
X-7493000Y+2032000D03*
X-7493000Y+1778000D03*
X-7493000Y+1524000D03*
X-7493000Y+1270000D03*
X-7493000Y+1016000D03*
X-7493000Y+762000D03*
X-7493000Y+508000D03*
X-9525000Y+508000D03*
X-9525000Y+762000D03*
X-9525000Y+1016000D03*
X-9525000Y+1270000D03*
X-9525000Y+1524000D03*
X-9525000Y+1778000D03*
X-9525000Y+2032000D03*
X-9525000Y+2286000D03*
D70*
X-8255000Y+381000D03*
X-8255000Y-127000D03*
X-7874000Y+381000D03*
X-7874000Y-127000D03*
X-8636000Y+381000D03*
X-8636000Y-127000D03*
D71*
X-9525000Y-508000D03*
X-8763000Y-508000D03*
X-9144000Y-508000D03*
X-7366000Y-508000D03*
X-7747000Y-508000D03*
X-7366000Y-127000D03*
X-8128000Y-508000D03*
D20*
X-9906000Y-635000D02*
X-7112000Y-635000D01*
X-7112000Y+3302000D01*
X-9906000Y+3302000D01*
X-9906000Y-635000D01*
M02*
