G04 PROTEUS GERBER X2 FILE*
%TF.GenerationSoftware,Labcenter,Proteus,8.9-SP0-Build27865*%
%TF.CreationDate,2021-07-06T13:58:13+00:00*%
%TF.FileFunction,Copper,L1,Top*%
%TF.FilePolarity,Positive*%
%TF.Part,Single*%
%TF.SameCoordinates,{18627ce9-af7a-45ab-814d-a4259279258d}*%
%FSLAX45Y45*%
%MOMM*%
G01*
%TA.AperFunction,Conductor*%
%ADD10C,0.254000*%
%ADD11C,0.635000*%
%TA.AperFunction,ViaPad*%
%ADD12C,0.762000*%
%AMDIL003*
4,1,8,
-1.270000,0.457200,-0.965200,0.762000,0.965200,0.762000,1.270000,0.457200,1.270000,-0.457200,
0.965200,-0.762000,-0.965200,-0.762000,-1.270000,-0.457200,-1.270000,0.457200,
0*%
%TA.AperFunction,ComponentPad*%
%ADD13DIL003*%
%TA.AperFunction,SMDPad,CuDef*%
%ADD14R,1.520000X0.650000*%
%TA.AperFunction,SMDPad,CuDef*%
%ADD15R,1.524000X1.016000*%
%ADD16R,1.524000X2.032000*%
%TA.AperFunction,SMDPad,CuDef*%
%ADD17R,1.143000X1.803400*%
%ADD18R,1.803400X1.143000*%
%ADD19R,0.939800X1.447800*%
%TA.AperFunction,ComponentPad*%
%ADD70C,1.778000*%
%TA.AperFunction,WasherPad*%
%ADD71C,1.397000*%
%TA.AperFunction,Profile*%
%ADD20C,0.203200*%
%TD.AperFunction*%
D10*
X-8001000Y+1016000D02*
X-8037000Y+980000D01*
X-8509000Y+980000D01*
X-7874000Y-127000D02*
X-8001000Y-254000D01*
X-8763000Y-254000D01*
X-8890000Y-127000D01*
X-9017000Y+127000D02*
X-8890000Y+127000D01*
X-9271000Y+508000D02*
X-9017000Y+508000D01*
X-8890000Y+381000D01*
X-8890000Y+254000D01*
X-8636000Y+2159000D02*
X-8492000Y+2159000D01*
X-8636000Y+127000D02*
X-8128000Y+127000D01*
X-7874000Y+381000D01*
X-8636000Y+127000D02*
X-8763000Y+254000D01*
X-8763000Y+635000D01*
X-8890000Y+762000D01*
X-9271000Y-127000D02*
X-9432000Y-127000D01*
X-8890000Y+2159000D02*
X-9034000Y+2159000D01*
X-9271000Y+254000D02*
X-9432000Y+254000D01*
X-8492000Y+1778000D02*
X-8763000Y+1778000D01*
X-9144000Y+2667000D02*
X-9398000Y+2667000D01*
X-8636000Y+2032000D02*
X-8492000Y+2032000D01*
X-8890000Y+1778000D02*
X-9034000Y+1778000D01*
X-8255000Y+3048000D02*
X-8382000Y+3048000D01*
X-7874000Y+3048000D02*
X-8092000Y+3048000D01*
X-9017000Y+889000D02*
X-9080500Y+952500D01*
X-9090000Y+952500D01*
X-9090000Y+1524000D01*
D11*
X-8890000Y+2413000D02*
X-9034000Y+2413000D01*
D10*
X-8255000Y+2921000D02*
X-8226107Y+2892107D01*
X-8001000Y+2892107D01*
X-7972107Y+2921000D01*
X-7747000Y+2921000D01*
X-8890000Y+2540000D02*
X-9034000Y+2540000D01*
X-8509000Y+1397000D02*
X-8382000Y+1397000D01*
X-8001000Y+2286000D02*
X-8164000Y+2286000D01*
X-9017000Y+762000D02*
X-9180000Y+762000D01*
X-7620000Y-127000D02*
X-7810500Y-317500D01*
X-8826500Y-317500D01*
X-8890000Y-254000D01*
X-7874000Y+1905000D02*
X-7874000Y+2286000D01*
X-7874000Y+1905000D02*
X-7747000Y+1905000D01*
X-7874000Y+1143000D02*
X-7874000Y+762000D01*
X-8001000Y+1905000D02*
X-8164000Y+1905000D01*
X-7874000Y+1143000D02*
X-7747000Y+1143000D01*
X-9271000Y+127000D02*
X-9144000Y+0D01*
X-9144000Y-508000D01*
X-9525000Y+2032000D02*
X-9034000Y+2032000D01*
X-8255000Y-127000D02*
X-8636000Y-127000D01*
X-7747000Y+2667000D02*
X-7529000Y+2667000D01*
X-9034000Y+2032000D02*
X-8890000Y+2032000D01*
X-8509000Y+3048000D02*
X-8636000Y+3048000D01*
X-9271000Y+127000D02*
X-9432000Y+127000D01*
X-8001000Y+2667000D02*
X-7874000Y+2666999D01*
X-7874000Y+2667000D01*
X-9017000Y+127000D02*
X-9017000Y-241300D01*
X-8877300Y-381000D01*
X-7874000Y-381000D01*
X-7747000Y-508000D01*
X-9017000Y+127000D02*
X-9271000Y+381000D01*
X-9625666Y+381000D01*
X-9779000Y+534334D01*
X-9779000Y+989666D01*
X-9625666Y+1143000D01*
X-9216000Y+1143000D01*
X-8492000Y+1778000D02*
X-8318575Y+1778000D01*
X-8292750Y+1752175D01*
X-7899187Y+1752175D01*
X-7747000Y+1599988D01*
X-7747000Y+1397000D01*
X-9271000Y+1905000D02*
X-9624763Y+1905000D01*
X-9709150Y+1989387D01*
X-9709150Y+2413000D01*
X-9582150Y+2540000D01*
X-9547144Y+2540000D01*
X-9498000Y+2589144D01*
X-9498000Y+2774933D01*
X-9517067Y+2794000D01*
X-9550383Y+2794000D01*
X-9563100Y+2806717D01*
X-9563100Y+2921000D01*
X-8492000Y+1905000D02*
X-8636000Y+1905000D01*
X-8763000Y+2032000D01*
X-8763000Y+2667000D01*
X-8890000Y+2794000D01*
X-9163050Y+2794000D01*
X-9271000Y+2901950D01*
X-9271000Y+3048000D01*
X-8492000Y+1905000D02*
X-8373537Y+1905000D01*
X-8318575Y+1959962D01*
X-8318575Y+2333280D01*
X-8213019Y+2438836D01*
X-7334032Y+2438836D01*
X-7239000Y+2533868D01*
X-7239000Y+2667000D01*
X-8672000Y+1397000D02*
X-8763000Y+1397000D01*
X-8763000Y+1612527D01*
X-8852273Y+1701800D01*
X-9124635Y+1701800D01*
X-9171450Y+1748615D01*
X-9171450Y+1883585D01*
X-9150035Y+1905000D01*
X-9034000Y+1905000D01*
X-8890000Y+1905000D02*
X-8813800Y+1981200D01*
X-8813800Y+2194950D01*
X-8904850Y+2286000D01*
X-9034000Y+2286000D01*
X-8636000Y+2794000D02*
X-8509000Y+2794000D01*
X-8489315Y+2813685D01*
X-7546657Y+2813685D01*
X-7454900Y+2905442D01*
X-7454900Y+3048000D01*
X-8636000Y+2794000D02*
X-8736965Y+2894965D01*
X-8906633Y+2894965D01*
X-8926000Y+2914332D01*
X-8926000Y+3048000D01*
X-7239000Y+1524000D02*
X-7239000Y+787699D01*
X-7398684Y+628015D01*
X-7943887Y+628015D01*
X-8001000Y+685128D01*
X-8001000Y+827222D01*
X-8083513Y+909735D01*
X-8255632Y+909735D01*
X-8319990Y+845377D01*
X-8319990Y+748008D01*
X-8377998Y+690000D01*
X-8509000Y+690000D01*
X-7747000Y+2540000D02*
X-7762875Y+2524125D01*
X-7762875Y+2514183D01*
X-8144742Y+2514183D01*
X-8164000Y+2533441D01*
X-8164000Y+2667000D01*
X-8164000Y+1143000D02*
X-8063450Y+1143000D01*
X-8001000Y+1205450D01*
X-8001000Y+1397000D01*
X-7874000Y+1524000D01*
X-8926000Y+1143000D02*
X-8384592Y+1143000D01*
X-8273000Y+1254592D01*
X-8273000Y+1524000D01*
X-8164000Y+1524000D01*
X-8255000Y-127000D02*
X-8128000Y+0D01*
X-7874000Y+0D01*
X-7747000Y+127000D01*
X-7747000Y+443014D01*
X-7811986Y+508000D01*
X-8041864Y+508000D01*
X-8164000Y+630136D01*
X-8164000Y+762000D01*
X-9525000Y+1524000D02*
X-9690100Y+1524000D01*
X-9779000Y+1612900D01*
X-9779000Y+2576500D01*
X-9688500Y+2667000D01*
X-9598000Y+2667000D01*
X-9525000Y+1270000D02*
X-9398000Y+1397000D01*
X-9334500Y+1397000D01*
X-9271000Y+1460500D01*
X-9271000Y+1524000D01*
X-9157789Y+1637211D01*
X-9003211Y+1637211D01*
X-8890000Y+1524000D01*
X-8672000Y+1397000D02*
X-8672000Y+1536911D01*
X-8532090Y+1676821D01*
X-8034875Y+1676821D01*
X-8034875Y+1651000D01*
X-8001000Y+1651000D01*
D12*
X-8001000Y+1016000D03*
X-9271000Y-127000D03*
X-8636000Y+127000D03*
X-8890000Y+2159000D03*
X-7874000Y+3048000D03*
X-9017000Y+889000D03*
X-8890000Y+2413000D03*
X-8509000Y+1397000D03*
X-8001000Y+2286000D03*
X-7620000Y-127000D03*
X-8001000Y+1905000D03*
X-8890000Y+2032000D03*
X-9271000Y+127000D03*
X-8001000Y+2667000D03*
X-8890000Y+1905000D03*
X-8636000Y+2794000D03*
X-8001000Y+1651000D03*
X-9271000Y+508000D03*
X-8636000Y+2159000D03*
X-7747000Y+1397000D03*
X-9271000Y+1905000D03*
X-8763000Y+1778000D03*
X-8636000Y+2032000D03*
X-9144000Y+2667000D03*
X-8890000Y+1778000D03*
X-8255000Y+3048000D03*
X-8255000Y+2921000D03*
X-8890000Y+2540000D03*
X-7747000Y+2540000D03*
X-7239000Y+1524000D03*
X-8890000Y-254000D03*
X-9017000Y+762000D03*
X-7747000Y+1905000D03*
X-7747000Y+1143000D03*
X-8509000Y+3048000D03*
X-7747000Y+2667000D03*
X-9271000Y+254000D03*
D13*
X-7493000Y+2286000D03*
X-7493000Y+2032000D03*
X-7493000Y+1778000D03*
X-7493000Y+1524000D03*
X-7493000Y+1270000D03*
X-7493000Y+1016000D03*
X-7493000Y+762000D03*
X-7493000Y+508000D03*
X-9525000Y+508000D03*
X-9525000Y+762000D03*
X-9525000Y+1016000D03*
X-9525000Y+1270000D03*
X-9525000Y+1524000D03*
X-9525000Y+1778000D03*
X-9525000Y+2032000D03*
X-9525000Y+2286000D03*
D14*
X-8492000Y+1778000D03*
X-8492000Y+1905000D03*
X-8492000Y+2032000D03*
X-8492000Y+2159000D03*
X-8492000Y+2286000D03*
X-8492000Y+2413000D03*
X-8492000Y+2540000D03*
X-9034000Y+2540000D03*
X-9034000Y+2413000D03*
X-9034000Y+2286000D03*
X-9034000Y+2159000D03*
X-9034000Y+2032000D03*
X-9034000Y+1905000D03*
X-9034000Y+1778000D03*
X-8890000Y-127000D03*
X-8890000Y+0D03*
X-8890000Y+127000D03*
X-8890000Y+254000D03*
X-9432000Y+254000D03*
X-9432000Y+127000D03*
X-9432000Y+0D03*
X-9432000Y-127000D03*
D15*
X-7747000Y+3175000D03*
X-7747000Y+2921000D03*
D16*
X-7454900Y+3048000D03*
D15*
X-9563100Y+3175000D03*
X-9563100Y+2921000D03*
D16*
X-9271000Y+3048000D03*
D17*
X-7874000Y+1524000D03*
X-8164000Y+1524000D03*
X-8926000Y+1143000D03*
X-9216000Y+1143000D03*
X-7874000Y+1143000D03*
X-8164000Y+1143000D03*
X-8164000Y+762000D03*
X-7874000Y+762000D03*
X-7874000Y+1905000D03*
X-8164000Y+1905000D03*
X-8890000Y+762000D03*
X-9180000Y+762000D03*
X-7874000Y+2286000D03*
X-8164000Y+2286000D03*
X-7874000Y+2667000D03*
X-8164000Y+2667000D03*
D18*
X-8509000Y+690000D03*
X-8509000Y+980000D03*
D19*
X-8890000Y+1524000D03*
X-9090000Y+1524000D03*
D17*
X-8636000Y+3048000D03*
X-8926000Y+3048000D03*
X-8382000Y+1397000D03*
X-8672000Y+1397000D03*
X-8092000Y+3048000D03*
X-8382000Y+3048000D03*
D19*
X-9398000Y+2667000D03*
X-9598000Y+2667000D03*
D17*
X-7239000Y+2667000D03*
X-7529000Y+2667000D03*
D70*
X-8255000Y+381000D03*
X-8255000Y-127000D03*
X-7874000Y+381000D03*
X-7874000Y-127000D03*
X-8636000Y+381000D03*
X-8636000Y-127000D03*
D71*
X-9525000Y-508000D03*
X-8763000Y-508000D03*
X-9144000Y-508000D03*
X-7366000Y-508000D03*
X-7747000Y-508000D03*
X-7366000Y-127000D03*
X-8128000Y-508000D03*
D20*
X-9906000Y-635000D02*
X-7112000Y-635000D01*
X-7112000Y+3302000D01*
X-9906000Y+3302000D01*
X-9906000Y-635000D01*
M02*
